<?xml version="1.0" standalone="no"?>
<!DOCTYPE svg PUBLIC "-//W3C//DTD SVG 20010904//EN"
 "http://www.w3.org/TR/2001/REC-SVG-20010904/DTD/svg10.dtd">
<svg version="1.0" xmlns="http://www.w3.org/2000/svg"
 width="224.000000pt" height="224.000000pt" viewBox="0 0 224.000000 224.000000"
 preserveAspectRatio="xMidYMid meet">

<g transform="translate(0.000000,224.000000) scale(0.100000,-0.100000)"
fill="#000000" stroke="none">
<path d="M783 1973 c-18 -7 -16 -23 2 -23 8 0 15 7 15 15 0 8 -1 15 -2 14 -2
0 -9 -3 -15 -6z"/>
<path d="M1490 1850 c13 -8 13 -11 1 -19 -8 -5 -10 -14 -6 -22 6 -9 11 -6 17
10 9 25 3 41 -15 41 -7 0 -6 -4 3 -10z"/>
<path d="M1533 1823 c9 -2 23 -2 30 0 6 3 -1 5 -18 5 -16 0 -22 -2 -12 -5z"/>
<path d="M1690 1651 c0 -6 -8 -7 -17 -4 -17 7 -17 6 0 -17 9 -14 20 -32 23
-40 15 -40 29 -61 32 -50 2 6 -1 17 -7 23 -14 14 -15 40 -1 32 6 -3 10 -1 10
4 0 6 -4 11 -10 11 -5 0 -10 9 -10 19 0 11 -4 23 -10 26 -5 3 -10 2 -10 -4z"/>
<path d="M1598 1633 c7 -3 16 -2 19 1 4 3 -2 6 -13 5 -11 0 -14 -3 -6 -6z"/>
<path d="M1630 1600 c6 -11 16 -20 22 -20 6 0 3 9 -7 20 -10 11 -20 20 -22 20
-2 0 1 -9 7 -20z"/>
<path d="M1480 1341 c0 -5 7 -17 16 -25 14 -15 26 -18 79 -20 13 -1 21 -9 23
-24 3 -18 34 -42 56 -42 1 0 3 13 4 29 3 34 -13 48 -33 31 -15 -12 -20 -4 -16
22 0 4 -7 7 -17 6 -36 -3 -52 2 -52 17 0 13 -4 14 -20 5 -14 -7 -20 -7 -20 0
0 5 -4 10 -10 10 -5 0 -10 -4 -10 -9z"/>
<path d="M1095 1299 c-4 -6 -5 -12 -2 -15 2 -3 7 2 10 11 7 17 1 20 -8 4z"/>
<path d="M1260 1225 c-8 -9 -8 -15 -2 -15 12 0 26 19 19 26 -2 2 -10 -2 -17
-11z"/>
<path d="M1567 1226 c-4 -9 2 -17 14 -21 27 -9 30 -4 9 18 -15 15 -18 16 -23
3z"/>
<path d="M828 1181 c10 -6 5 -10 -17 -14 -17 -4 -31 -13 -31 -21 0 -7 -7 -16
-15 -20 -9 -3 -12 -12 -9 -21 4 -9 1 -27 -6 -41 -14 -25 -9 -41 9 -29 6 3 11
16 11 28 0 12 8 31 16 42 15 19 15 19 9 -10 -4 -18 -3 -25 2 -18 5 7 17 12 28
13 48 1 62 5 58 16 -7 18 16 27 33 13 20 -17 28 -5 12 20 -15 24 -28 26 -47 9
-10 -11 -11 -8 -6 15 7 25 5 27 -26 27 -23 0 -29 -3 -21 -9z"/>
<path d="M1817 1147 c-4 -10 -7 -30 -7 -43 0 -20 3 -23 18 -16 9 5 23 7 30 5
14 -5 15 6 3 26 -5 7 -13 11 -19 7 -6 -3 -12 4 -14 16 -3 21 -4 21 -11 5z"/>
<path d="M980 1136 c0 -2 7 -6 15 -10 8 -3 15 -1 15 4 0 6 -7 10 -15 10 -8 0
-15 -2 -15 -4z"/>
<path d="M1250 1105 c0 -9 6 -12 15 -9 8 4 15 7 15 9 0 2 -7 5 -15 9 -9 3 -15
0 -15 -9z"/>
<path d="M1215 1100 c-3 -5 -1 -10 4 -10 6 0 11 5 11 10 0 6 -2 10 -4 10 -3 0
-8 -4 -11 -10z"/>
<path d="M1787 1103 c-4 -3 -7 -16 -6 -27 0 -19 1 -19 10 3 10 24 8 36 -4 24z"/>
<path d="M1100 1090 c0 -5 5 -10 11 -10 5 0 7 5 4 10 -3 6 -8 10 -11 10 -2 0
-4 -4 -4 -10z"/>
<path d="M1210 1055 c-7 -8 -17 -12 -24 -8 -6 3 -5 0 2 -8 9 -10 15 -10 20 -3
4 6 14 13 22 16 9 3 10 7 3 11 -6 4 -16 0 -23 -8z"/>
<path d="M842 1024 c-2 -27 0 -34 10 -28 7 5 20 9 28 9 8 0 15 7 15 15 0 8 -6
14 -12 13 -7 -2 -13 4 -13 12 0 33 -26 14 -28 -21z"/>
<path d="M1010 1050 c0 -5 5 -10 11 -10 5 0 7 5 4 10 -3 6 -8 10 -11 10 -2 0
-4 -4 -4 -10z"/>
<path d="M1105 1040 c3 -5 8 -10 11 -10 2 0 4 5 4 10 0 6 -5 10 -11 10 -5 0
-7 -4 -4 -10z"/>
<path d="M1220 1011 c0 -5 5 -13 10 -16 6 -3 10 -2 10 4 0 5 -4 13 -10 16 -5
3 -10 2 -10 -4z"/>
<path d="M1256 1011 c-4 -5 -2 -12 3 -15 5 -4 12 -2 15 3 4 5 2 12 -3 15 -5 4
-12 2 -15 -3z"/>
<path d="M1600 1003 c1 -17 28 -43 45 -43 16 0 16 3 -5 25 -23 25 -40 32 -40
18z"/>
<path d="M864 982 c5 -8 66 -4 66 4 0 2 -16 4 -36 4 -19 0 -33 -4 -30 -8z"/>
<path d="M1207 968 c-16 -6 -29 -19 -33 -34 -5 -19 -9 -22 -24 -14 -13 7 -21
7 -25 -1 -4 -6 -5 -11 -4 -12 2 -1 14 -7 26 -14 20 -11 23 -10 33 23 13 38 29
40 45 6 5 -12 12 -22 16 -22 9 0 35 33 43 54 5 15 2 17 -18 12 -13 -3 -26 -2
-28 3 -2 4 -15 4 -31 -1z"/>
<path d="M1557 938 c-6 -21 -2 -36 7 -27 10 11 16 49 8 49 -5 0 -12 -10 -15
-22z"/>
<path d="M620 919 c0 -11 5 -17 10 -14 6 3 10 13 10 21 0 8 -4 14 -10 14 -5 0
-10 -9 -10 -21z"/>
<path d="M725 930 c4 -6 11 -8 16 -5 14 9 11 15 -7 15 -8 0 -12 -5 -9 -10z"/>
<path d="M830 926 c0 -2 9 -6 20 -9 11 -3 20 -1 20 4 0 5 -9 9 -20 9 -11 0
-20 -2 -20 -4z"/>
<path d="M978 913 c6 -2 18 -2 25 0 6 3 1 5 -13 5 -14 0 -19 -2 -12 -5z"/>
<path d="M734 889 c-6 -10 14 -22 25 -14 6 3 14 -3 20 -12 5 -10 12 -15 16
-11 12 12 -12 41 -34 43 -12 1 -24 -2 -27 -6z"/>
<path d="M1200 890 c0 -6 7 -10 15 -10 8 0 15 2 15 4 0 2 -7 6 -15 10 -8 3
-15 1 -15 -4z"/>
<path d="M820 879 c0 -5 5 -7 10 -4 6 3 10 8 10 11 0 2 -4 4 -10 4 -5 0 -10
-5 -10 -11z"/>
<path d="M1135 870 c-3 -5 -1 -10 4 -10 6 0 11 5 11 10 0 6 -2 10 -4 10 -3 0
-8 -4 -11 -10z"/>
<path d="M1472 862 c-7 -2 -12 -10 -12 -18 0 -8 6 -11 15 -8 12 5 12 0 5 -26
-8 -28 -7 -30 6 -19 29 24 34 45 15 60 -9 9 -22 14 -29 11z"/>
<path d="M1063 835 c-7 -8 -9 -16 -4 -19 5 -3 12 1 15 10 8 22 4 25 -11 9z"/>
<path d="M790 812 c0 -13 4 -21 9 -18 5 4 12 0 14 -6 3 -7 6 -8 6 -2 1 5 -6
19 -14 30 -14 18 -14 18 -15 -4z"/>
<path d="M735 800 c-8 -13 -1 -24 14 -19 6 3 7 10 2 18 -6 10 -10 10 -16 1z"/>
<path d="M1140 799 c0 -5 5 -7 10 -4 6 3 10 8 10 11 0 2 -4 4 -10 4 -5 0 -10
-5 -10 -11z"/>
<path d="M770 760 c0 -6 7 -10 15 -10 8 0 15 2 15 4 0 2 -7 6 -15 10 -8 3 -15
1 -15 -4z"/>
<path d="M1435 673 c3 -50 5 -53 23 -53 13 0 14 2 4 9 -11 6 -8 10 10 14 15 4
24 14 24 26 0 11 -5 17 -13 14 -7 -3 -13 0 -13 6 0 6 -8 11 -19 11 -14 0 -18
-7 -16 -27z"/>
<path d="M697 610 c-13 -16 -15 -25 -7 -40 14 -26 24 -26 17 -1 -3 14 -1 18
10 14 8 -3 12 -11 9 -18 -6 -16 13 -35 36 -35 21 0 21 1 7 34 -7 14 -21 26
-33 28 -13 2 -20 10 -20 21 2 21 2 21 -19 -3z"/>
<path d="M1679 553 c-13 -15 -12 -15 9 -4 23 12 28 21 13 21 -5 0 -15 -7 -22
-17z"/>
<path d="M1498 538 c-10 -10 -18 -13 -18 -8 0 21 -40 -10 -46 -35 -5 -21 -10
-24 -33 -19 -14 4 -32 13 -38 22 -11 14 -13 13 -13 -7 0 -14 -4 -20 -11 -15
-6 3 -28 1 -49 -6 -29 -10 -36 -17 -33 -31 3 -11 14 -19 24 -19 11 0 19 -5 19
-11 0 -7 -10 -9 -27 -5 -18 4 -23 3 -15 -2 8 -5 14 -13 14 -18 -1 -5 7 -8 16
-7 11 2 9 -2 -5 -9 -13 -6 -23 -15 -23 -20 0 -4 -9 -8 -20 -8 -11 0 -20 -4
-20 -10 0 -5 -9 -10 -20 -10 -11 0 -20 -6 -20 -14 0 -18 -27 -28 -48 -17 -27
13 -100 23 -82 10 11 -8 9 -9 -12 -5 -16 4 -28 2 -28 -4 0 -5 -8 -10 -17 -10
-15 0 -16 -2 -3 -10 20 -13 33 -13 25 0 -4 7 8 8 37 4 32 -4 39 -3 28 5 -13 9
-13 11 3 11 9 0 17 -7 17 -15 0 -8 6 -15 13 -16 69 -5 205 19 185 33 -9 6 -6
7 9 3 27 -7 78 18 93 45 6 11 17 20 25 20 8 0 15 5 15 10 0 6 12 23 27 38 15
15 29 36 30 47 4 25 59 79 73 70 14 -9 13 11 -2 22 -20 16 -49 12 -70 -9z
m-93 -88 c3 -5 -1 -10 -9 -10 -9 0 -16 5 -16 10 0 6 4 10 9 10 6 0 13 -4 16
-10z m-40 -29 c-16 -14 -55 -23 -55 -12 0 9 20 17 50 20 8 1 10 -2 5 -8z m62
-36 c0 -8 -4 -12 -9 -9 -4 3 -8 9 -8 15 0 5 4 9 8 9 5 0 9 -7 9 -15z m-44 -41
c-4 -11 -12 -13 -27 -9 -11 4 -31 7 -43 7 -34 0 -28 16 10 26 38 11 69 -1 60
-24z m-172 -41 c-11 -5 -11 -7 0 -14 11 -7 10 -9 -3 -9 -18 0 -23 11 -11 23 3
4 11 7 17 6 6 0 5 -3 -3 -6z"/>
<path d="M1390 530 c0 -5 5 -10 10 -10 6 0 10 5 10 10 0 6 -4 10 -10 10 -5 0
-10 -4 -10 -10z"/>
<path d="M1055 510 c-3 -5 1 -10 10 -10 9 0 13 5 10 10 -3 6 -8 10 -10 10 -2
0 -7 -4 -10 -10z"/>
<path d="M1537 480 c-16 -17 -25 -30 -20 -30 10 1 63 47 63 55 0 12 -17 2 -43
-25z"/>
<path d="M1090 480 c0 -5 4 -10 9 -10 6 0 13 5 16 10 3 6 -1 10 -9 10 -9 0
-16 -4 -16 -10z"/>
<path d="M855 470 c-11 -5 -14 -9 -7 -9 8 -1 12 -7 10 -13 -5 -14 9 -32 32
-41 11 -4 11 -6 2 -6 -7 -1 -11 -5 -7 -11 3 -5 13 -6 22 -3 11 4 14 3 9 -5 -4
-7 -1 -12 10 -12 11 0 15 -6 11 -20 -3 -11 -1 -20 4 -20 5 0 9 6 9 13 0 8 17
12 50 13 28 0 50 -3 50 -8 0 -4 -5 -8 -11 -8 -5 0 -7 -4 -4 -10 3 -5 11 -10
16 -10 6 0 7 5 4 10 -4 6 8 10 30 10 31 0 35 3 30 19 -5 15 -1 18 22 15 16 -2
22 -1 15 2 -6 3 -10 10 -7 14 3 5 -8 8 -25 8 -36 -1 -80 20 -80 39 0 7 -7 13
-15 13 -8 0 -15 5 -15 10 0 6 -14 10 -30 10 -26 0 -31 -5 -36 -29 -6 -27 -8
-28 -38 -19 -27 9 -32 14 -28 34 2 13 3 24 1 23 -2 0 -13 -4 -24 -9z m155 -35
c10 -13 9 -15 -9 -15 -12 0 -21 6 -21 15 0 8 4 15 9 15 5 0 14 -7 21 -15z m17
-31 c-3 -3 -12 -4 -19 -1 -8 3 -5 6 6 6 11 1 17 -2 13 -5z"/>
<path d="M1030 470 c0 -5 5 -10 11 -10 5 0 7 5 4 10 -3 6 -8 10 -11 10 -2 0
-4 -4 -4 -10z"/>
<path d="M732 411 c-11 -6 -10 -10 4 -15 9 -3 19 -4 22 -1 3 3 0 5 -7 5 -7 0
-9 5 -6 10 7 12 4 12 -13 1z"/>
<path d="M820 390 c0 -5 4 -10 9 -10 4 0 20 -11 35 -25 14 -13 26 -20 26 -15
0 5 -11 17 -25 28 -13 11 -21 22 -18 26 3 3 -1 6 -10 6 -9 0 -17 -4 -17 -10z"/>
<path d="M785 370 c3 -5 8 -10 11 -10 2 0 4 5 4 10 0 6 -5 10 -11 10 -5 0 -7
-4 -4 -10z"/>
<path d="M953 316 c-9 -11 -9 -15 0 -19 7 -3 14 3 14 14 2 22 2 22 -14 5z"/>
</g>
</svg>
